<svg xmlns="http://www.w3.org/2000/svg" xml:space="preserve" viewBox="0 0 128 128"><path fill="#84b0c1" d="M23.91 104.02a17.01 17.01 0 0 1 0-23.84l18.74-18.74a17.14 17.14 0 0 1 7.52-4.33c2.8-.76 5.74-.76 8.41-.13a18.1 18.1 0 0 1 7.65 4.21l.25.25a16.77 16.77 0 0 1 0 23.84l-18.74 18.74a16.76 16.76 0 0 1-23.83 0m53.03-53.03a31.94 31.94 0 0 0-45 0L13.33 69.73c-12.36 12.36-12.36 32.63 0 45s32.63 12.36 45 0l18.74-18.74a32.06 32.06 0 0 0-.13-45"/><path fill="#2f7889" d="M66.86 48.48c3.36-1.69 6.57-.51 6.57-.51a31.66 31.66 0 0 0-21.03-6.18l-.11.16a17.31 17.31 0 0 0-1.72 15.07c2.68-.66 5.46-.64 8-.03 1.04.28 1.83.55 3.39 1.28.01-.01-.54-7.05 4.9-9.79m-20.1 9.98c.13-.97.19-1.95.25-2.93a61.5 61.5 0 0 1 2.38-13.4 31.6 31.6 0 0 0-8.97 2.83c-4.44 5.73-2.98 13.15 2.23 16.49a16.7 16.7 0 0 1 4.11-2.99"/><path fill="#84b0c1" d="M104.09 23.98a17.01 17.01 0 0 1 0 23.84L85.35 66.56c-2.04 2.04-4.72 3.57-7.52 4.33s-5.74.76-8.41.13a18.1 18.1 0 0 1-7.65-4.21l-.25-.25a16.77 16.77 0 0 1 0-23.84l18.74-18.74a16.76 16.76 0 0 1 23.83 0M51.06 77.01a31.94 31.94 0 0 0 45 0l18.61-18.74c12.36-12.36 12.36-32.63 0-45s-32.63-12.36-45 0L50.94 32.01a32.05 32.05 0 0 0 .12 45"/><path fill="#a8e3f0" d="m50.45 39.42.12-.1a3.9 3.9 0 0 1 1.81-1.02c.69-.12 1.5.19 1.74.85.18.49.02 1.03-.15 1.52-2.63 7.95-4.74 18.04-2.18 26.27.25.8.49 1.83-.18 2.33-.39.3-.97.25-1.4.02-4.7-2.54-5.52-9.42-5.74-14.14-.26-5.96 1.39-11.7 5.98-15.73"/><path fill="#2f7889" d="M71.32 71.34c-.64-.08-1.32-.21-1.32-.21s-.1 4.27-3.51 7.81c-3.78 3.92-7.55 3.82-7.55 3.82 1.99 1.15 5.96 2.34 7.4 2.68l.15-.15c3.83-3.84 5.43-9 4.83-13.95m19.44-10.19-5.33 5.33a32.36 32.36 0 0 1-1.09 17.94 31.4 31.4 0 0 0 7.4-3.8 17.57 17.57 0 0 0-.98-19.47"/><path fill="#a8e3f0" d="M79.89 70.01c-.63-1.59-1.86-3.2-3.4-3.05-.96.09-2.45.99-2.35 3.74.07 2.13.88 4.21-.28 7-1.7 4.08-1.31 5.18-.9 5.83a2.37 2.37 0 0 0 2.05 1.02c2.03-.01 3.71-1.87 4.63-3.91a13.9 13.9 0 0 0 .25-10.63m-30.64 38.17c.64-.53 2.3-2.3 3.07-1.18-.28 3.08-2.65 5.59-5.25 7.27a19.1 19.1 0 0 1-10.8 3.18c-3.16-.09-8.4-1.37-10.24-4.3-1.5-2.38 1.67-2.79 3.43-2.13 6.27 2.39 13.36 2.44 19.79-2.84"/></svg>